<?xml version="1.0" encoding="utf-8"?>
<!-- Generator: Adobe Illustrator 16.0.0, SVG Export Plug-In . SVG Version: 6.00 Build 0)  -->
<!DOCTYPE svg PUBLIC "-//W3C//DTD SVG 1.1//EN" "http://www.w3.org/Graphics/SVG/1.1/DTD/svg11.dtd">
<svg version="1.1" id="Capa_1" xmlns="http://www.w3.org/2000/svg" xmlns:xlink="http://www.w3.org/1999/xlink" x="0px" y="0px"
	 width="595.279px" height="595.279px" viewBox="0 0 595.279 595.279" enable-background="new 0 0 595.279 595.279"
	 xml:space="preserve">
<g>
	<g>
		<path fill="#2F2F2F" d="M69.759,69.759v455.762h455.762V69.759H69.759z M267.854,342.844h-46.878v66.411h-38.507V211.139h83.99
			c38.441,0,63.062,35.345,63.062,65.853C329.521,312.948,302.187,342.844,267.854,342.844z M390.068,320.8v88.455h-37.391V263.039
			h34.321v31.252c2.604-5.022,18.975-36.472,52.738-32.926v34.042l0,0C406.845,295.407,393.974,312.429,390.068,320.8z"/>
	</g>
</g>
<g>
	<g>
		<path fill="#2F2F2F" d="M263.948,244.902h-42.972v64.179h44.646c13.508,0,24.835-12.603,24.835-32.089
			C290.456,260.249,280.291,244.902,263.948,244.902z"/>
	</g>
</g>
<g>
	<g>
		<path fill="#2F2F2F" d="M0,0V595.28H595.28V0H0z M560.401,560.401H34.88V34.88h525.521V560.401z"/>
	</g>
</g>
</svg>
