<?xml version="1.0" encoding="utf-8"?>
<!-- Generator: Adobe Illustrator 16.0.0, SVG Export Plug-In . SVG Version: 6.00 Build 0)  -->
<!DOCTYPE svg PUBLIC "-//W3C//DTD SVG 1.1//EN" "http://www.w3.org/Graphics/SVG/1.1/DTD/svg11.dtd">
<svg version="1.1" id="Capa_1" xmlns="http://www.w3.org/2000/svg" xmlns:xlink="http://www.w3.org/1999/xlink" x="0px" y="0px"
	 width="595.279px" height="595.279px" viewBox="0 0 595.279 595.279" enable-background="new 0 0 595.279 595.279"
	 xml:space="preserve">
<g>
	<g>
		<path fill="#2F2F2F" d="M0,0V595.28H595.28V0H0z M560.401,560.401H34.88V34.88h525.521V560.401z"/>
	</g>
</g>
<g>
	<g>
		<path fill="#2F2F2F" d="M69.759,69.759v455.762h455.762V69.759H69.759z M266.553,409.255l-46.878-70.876l-47.157,70.876h-41.856
			l68.364-97.663l-70.598-100.453h41.855l49.39,73.665l49.111-73.665h41.576l-70.597,100.453l68.364,97.663H266.553z
			 M454.064,411.208c-26.998,0-24.554-27.346-24.554-27.346c-5.398,9.304-21.482,28.183-50.785,28.183
			c-42.928,0-69.481-35.78-69.481-75.897c0-45.483,30.623-75.619,65.295-75.619c29.371,0,44.549,19.812,49.389,28.183v-83.153
			h37.391v160.726c0,3.906,5.485,10.978,8.65,11.161v31.811h0.002C463.455,410.555,458.154,411.208,454.064,411.208z"/>
	</g>
</g>
<g>
	<g>
		<path fill="#2F2F2F" d="M386.259,292.338c-25.464,0-38.229,25.262-38.229,44.646c0,21.308,15.672,43.251,40.461,43.251
			c23.461,0,34.133-21.02,35.437-24.556V320.8C422.437,316.71,409.044,292.338,386.259,292.338z"/>
	</g>
</g>
</svg>
