<?xml version="1.0" encoding="utf-8"?>
<!-- Generator: Adobe Illustrator 16.0.0, SVG Export Plug-In . SVG Version: 6.00 Build 0)  -->
<!DOCTYPE svg PUBLIC "-//W3C//DTD SVG 1.1//EN" "http://www.w3.org/Graphics/SVG/1.1/DTD/svg11.dtd">
<svg version="1.1" id="Capa_1" xmlns="http://www.w3.org/2000/svg" xmlns:xlink="http://www.w3.org/1999/xlink" x="0px" y="0px"
	 width="595.279px" height="595.279px" viewBox="0 0 595.279 595.279" enable-background="new 0 0 595.279 595.279"
	 xml:space="preserve">
<g>
	<g>
		<path fill="#2F2F2F" d="M0,0V595.28H595.28V0H0z M560.401,560.401H34.88V34.88h525.521V560.401z"/>
	</g>
</g>
<g>
	<g>
		<path fill="#2F2F2F" d="M245.253,244.902h-42.972v64.179h44.646c13.508,0,24.835-12.603,24.835-32.089
			C271.763,260.249,261.598,244.902,245.253,244.902z"/>
	</g>
</g>
<g>
	<g>
		<path fill="#2F2F2F" d="M69.759,69.759v455.762h455.762V69.759H69.759z M249.16,342.844h-46.878v66.411h-38.507V211.139h83.99
			c38.441,0,63.063,35.345,63.063,65.853C310.828,312.948,283.494,342.844,249.16,342.844z M389.233,412.045
			c-33.751,0-57.761-15.347-66.132-22.602l13.952-23.439c8.929,6.326,29.475,19.254,51.343,19.254
			c14.174,0,23.997-5.941,23.997-16.185c0-12.574-20.745-16.646-32.089-19.812c-9.487-2.604-52.181-8.604-52.181-40.739
			c0-30.938,26.923-48.273,57.482-48.273c32.078,0,49.202,13.022,57.202,20.091l-15.067,22.602
			c-7.442-5.581-24.008-16.184-42.414-16.184c-13.567,0-22.323,5.795-22.323,16.463c0,13.313,23.344,17.116,28.741,18.416
			c10.045,2.607,56.645,9.72,56.645,44.088C448.389,406.349,407.462,412.045,389.233,412.045z"/>
	</g>
</g>
</svg>
