<?xml version="1.0" encoding="utf-8"?>
<!-- Generator: Adobe Illustrator 16.0.0, SVG Export Plug-In . SVG Version: 6.00 Build 0)  -->
<!DOCTYPE svg PUBLIC "-//W3C//DTD SVG 1.1//EN" "http://www.w3.org/Graphics/SVG/1.1/DTD/svg11.dtd">
<svg version="1.1" id="Calque_1" focusable="false" xmlns="http://www.w3.org/2000/svg" xmlns:xlink="http://www.w3.org/1999/xlink"
	 x="0px" y="0px" width="595.279px" height="595.279px" viewBox="0 0 595.279 595.279" enable-background="new 0 0 595.279 595.279"
	 xml:space="preserve">
<title>Bootstrap</title>
<g>
	<path fill="#2F2F2F" d="M373.022,332.267c-10.31-9.338-24.512-13.813-42.992-13.813H222.549v108.553H330.03
		c18.48,0,32.876-4.767,42.992-14.396c10.213-9.532,15.368-23.149,15.368-40.657C388.39,354.736,383.332,341.605,373.022,332.267z"
		/>
	<path fill="#2F2F2F" d="M496.067,0H99.213C44.646,0,0,44.646,0,99.213v396.854c0,54.567,44.646,99.213,99.213,99.213h396.854
		c54.567,0,99.213-44.646,99.213-99.213V99.213C595.28,44.646,550.635,0,496.067,0z M441.888,417.96
		c-4.863,11.867-12.45,22.08-22.857,30.641c-10.407,8.56-23.637,15.368-39.88,20.427c-16.244,5.059-35.503,7.587-57.875,7.587
		h-159.52V129.366h168.761c31.125,0,56.123,7.101,74.896,21.399c18.773,14.298,28.208,35.794,28.208,64.683
		c0,17.509-4.278,32.487-12.839,44.938c-8.56,12.449-20.814,22.177-36.768,28.984v0.973c21.397,4.571,37.643,14.688,48.634,30.349
		c10.991,15.758,16.536,35.405,16.536,59.139C449.184,393.449,446.753,406.191,441.888,417.96z"/>
	<path fill="#2F2F2F" d="M358.238,262.332c9.729-8.365,14.591-20.231,14.591-35.795c0-17.509-4.377-29.86-13.132-36.962
		c-8.754-7.101-21.397-10.699-37.935-10.699h-99.214v95.906h99.214C336.353,274.782,348.511,270.696,358.238,262.332z"/>
</g>
</svg>
