<?xml version="1.0" encoding="utf-8"?>
<!-- Generator: Adobe Illustrator 16.0.0, SVG Export Plug-In . SVG Version: 6.00 Build 0)  -->
<!DOCTYPE svg PUBLIC "-//W3C//DTD SVG 1.1//EN" "http://www.w3.org/Graphics/SVG/1.1/DTD/svg11.dtd">
<svg version="1.1" id="Capa_1" xmlns="http://www.w3.org/2000/svg" xmlns:xlink="http://www.w3.org/1999/xlink" x="0px" y="0px"
	 width="595.279px" height="595.279px" viewBox="0 0 595.279 595.279" enable-background="new 0 0 595.279 595.279"
	 xml:space="preserve">
<path fill="#2F2F2F" d="M539.991,0H55.268C43.656,0,34.946,9.825,35.97,21.435l44.273,496.138
	c1.025,11.601,11.06,23.742,22.314,26.878l174.532,48.481c11.239,3.114,29.609,3.135,40.865,0.04l174.748-48.413
	c11.257-3.126,21.291-15.158,22.315-26.779l44.293-496.345C560.336,9.825,551.661,0,539.991,0z M455.927,179.091
	c-0.008,0.076-0.067,0.136-0.142,0.148c-0.076,0.013-0.149-0.026-0.183-0.098l-136.741,56.037c-1.947,0.798-3.058,2.863-2.653,4.928
	c0.407,2.065,2.219,3.556,4.324,3.556h106.362c5.658,0,11.049,2.402,14.832,6.61c3.783,4.207,5.602,9.823,5.001,15.449
	l-16.619,155.899c-0.815,7.648-5.955,14.146-13.212,16.7L304,478.045c-4.252,1.497-8.887,1.509-13.148,0.031l-112.368-38.924
	c-7.302-2.529-12.484-9.047-13.305-16.729l-7.533-70.604c-0.396-3.707,0.802-7.407,3.293-10.179
	c2.492-2.771,6.044-4.355,9.771-4.355h31.27c6.719,0,12.354,5.068,13.065,11.748l4.622,43.398l77.804,27.045l78.161-27.292
	l9.56-90.006H164.198c-6.698,0-12.325-5.04-13.06-11.698l-4.208-38.148c-0.643-5.818,2.641-11.359,8.051-13.589l141.438-58.313
	c1.604-0.661,2.517-2.362,2.18-4.064c-0.337-1.701-1.828-2.927-3.563-2.927H146.123c-4.483,0-8.243-3.386-8.712-7.842l-4.307-41.002
	c-0.26-2.468,0.541-4.93,2.201-6.775c1.661-1.844,4.027-2.897,6.508-2.897h311.589c2.495,0,4.871,1.065,6.533,2.926
	c1.662,1.861,2.451,4.343,2.169,6.821L455.927,179.091z"/>
</svg>
