<?xml version="1.0" encoding="utf-8"?>
<!-- Generator: Adobe Illustrator 16.0.0, SVG Export Plug-In . SVG Version: 6.00 Build 0)  -->
<!DOCTYPE svg PUBLIC "-//W3C//DTD SVG 1.1//EN" "http://www.w3.org/Graphics/SVG/1.1/DTD/svg11.dtd">
<svg version="1.1" id="Layer_1" xmlns="http://www.w3.org/2000/svg" xmlns:xlink="http://www.w3.org/1999/xlink" x="0px" y="0px"
	 width="595.279px" height="595.279px" viewBox="0 0 595.279 595.279" enable-background="new 0 0 595.279 595.279"
	 xml:space="preserve">
<g id="XMLID_106_">
	<path id="XMLID_107_" fill="#2F2F2F" d="M44.459,0c-5.472,0-9.548,4.458-9.063,9.907l46.124,517.356
		c0.485,5.449,5.194,11.105,10.469,12.569l195.727,54.345c5.271,1.464,13.897,1.464,19.172,0.004l196.321-54.434
		c5.272-1.463,9.987-7.119,10.473-12.566L559.881,9.907C560.37,4.458,556.29,0,550.82,0H44.459z M461.656,118.655
		c-0.437,4.86-1.19,13.297-1.676,18.746l-1.216,13.574c-0.489,5.447-1.186,13.238-1.554,17.311
		c-0.365,4.074-0.714,7.407-0.777,7.407c-0.062,0-4.59,0-10.061,0H307.586c-5.471,0-9.993,0-10.053,0s-4.586,0-10.057,0h-73.093
		c-5.472,0-9.548,4.458-9.063,9.907l4.264,47.658c0.485,5.447,5.361,9.907,10.832,9.907h67.062c5.471,0,9.997,0,10.057,0
		s4.582,0,10.053,0h115.269c5.471,0,13.938,0,18.814,0c4.872,0,8.501,3.977,8.059,8.837c-0.443,4.86-1.201,13.3-1.687,18.747
		l-13.71,153.643c-0.489,5.449-1.107,12.411-1.374,15.471c-0.273,3.058-4.807,6.756-10.079,8.219L307.226,480.15
		c-5.271,1.46-9.652,2.669-9.734,2.688c-0.081,0.018-4.46-1.166-9.734-2.628L171.98,448.083c-5.271-1.463-9.983-7.119-10.469-12.567
		l-7.452-83.647c-0.485-5.449,3.595-9.908,9.066-9.908h10.565c5.472,0,14.424,0,19.895,0h15.757c5.472,0,10.344,4.459,10.833,9.908
		l2.923,32.744c0.485,5.449,5.202,11.074,10.486,12.5l54.155,14.625c5.28,1.427,9.621,2.594,9.645,2.594
		c0.024,0,4.363-1.169,9.646-2.596l54.253-14.66c5.279-1.427,10.001-7.053,10.49-12.5l5.883-65.605
		c0.489-5.449-3.587-9.907-9.059-9.907h-61.009c-5.471,0-9.993,0-10.053,0s-4.586,0-10.057,0H160.174
		c-5.471,0-10.343-4.46-10.828-9.907L134.91,137.399c-0.485-5.449-1.239-13.884-1.676-18.746c-0.432-4.86,3.688-8.838,9.16-8.838
		h145.084c5.471,0,9.997,0,10.057,0s4.582,0,10.053,0h144.909C457.967,109.815,462.089,113.792,461.656,118.655z"/>
</g>
</svg>
