<?xml version="1.0" encoding="utf-8"?>
<!-- Generator: Adobe Illustrator 16.0.0, SVG Export Plug-In . SVG Version: 6.00 Build 0)  -->
<!DOCTYPE svg PUBLIC "-//W3C//DTD SVG 1.1//EN" "http://www.w3.org/Graphics/SVG/1.1/DTD/svg11.dtd">
<svg version="1.1" id="Calque_1" xmlns="http://www.w3.org/2000/svg" xmlns:xlink="http://www.w3.org/1999/xlink" x="0px" y="0px"
	 width="595.279px" height="595.279px" viewBox="0 0 595.279 595.279" enable-background="new 0 0 595.279 595.279"
	 xml:space="preserve">
<title></title>
<g id="Git">
	<path fill="#2F2F2F" d="M541.646,274.848L318.43,51.632c-12.935-12.747-33.71-12.747-46.645,0l-46.22,46.432l58.785,58.786
		c20.361-6.991,42.534,3.845,49.525,24.205c2.854,8.313,2.816,17.348-0.109,25.636l56.655,56.656
		c20.336-7.415,42.83,3.062,50.244,23.398c7.412,20.335-3.064,42.831-23.399,50.241c-14.618,5.331-31.006,1.508-41.755-9.742
		c-11.119-11.21-14.47-27.974-8.52-42.599l-52.821-50.904v138.871c3.76,1.962,7.205,4.475,10.224,7.454
		c15.451,15.324,15.556,40.272,0.23,55.726c-15.323,15.45-40.273,15.555-55.725,0.229c-15.453-15.323-15.556-40.272-0.232-55.724
		c3.743-3.775,8.206-6.748,13.129-8.751V230.118c-19.896-7.905-29.615-30.442-21.711-50.339c0.134-0.332,0.269-0.663,0.41-0.99
		l-57.721-57.935L49.633,273.784c-12.747,12.934-12.747,33.711,0,46.646l223.216,223.216c12.935,12.748,33.711,12.748,46.646,0
		l222.151-222.15C554.394,308.559,554.394,287.783,541.646,274.848"/>
</g>
</svg>
