<?xml version="1.0" encoding="utf-8"?>
<!-- Generator: Adobe Illustrator 16.0.0, SVG Export Plug-In . SVG Version: 6.00 Build 0)  -->
<!DOCTYPE svg PUBLIC "-//W3C//DTD SVG 1.1//EN" "http://www.w3.org/Graphics/SVG/1.1/DTD/svg11.dtd">
<svg version="1.1" id="Calque_1" xmlns="http://www.w3.org/2000/svg" xmlns:xlink="http://www.w3.org/1999/xlink" x="0px" y="0px"
	 width="512px" height="512px" viewBox="0 0 512 512" enable-background="new 0 0 512 512" xml:space="preserve">
<g id="Layer_2">
	<g>
		<path fill="#2F2F2F" d="M103.462,207.061c15.821,0,26.365,2.92,31.637,8.761c5.268,5.842,6.522,15.867,3.767,30.074
			c-2.88,14.795-8.424,25.355-16.642,31.683s-20.724,9.487-37.513,9.487h-25.33l15.549-80.005H103.462z M2,368.057h41.643
			l9.877-50.823h35.669c15.739,0,28.687-1.649,38.851-4.96c10.165-3.305,19.401-8.848,27.717-16.63
			c6.978-6.415,12.624-13.49,16.948-21.227c4.318-7.731,7.388-16.268,9.201-25.602c4.406-22.66,1.081-40.31-9.965-52.955
			c-11.046-12.645-28.619-18.967-52.709-18.967H39.154L2,368.057z"/>
		<path fill="#2F2F2F" d="M212.49,126.071h41.313l-9.878,50.823h36.806c23.157,0,39.132,4.042,47.924,12.117
			c8.791,8.08,11.425,21.17,7.91,39.266l-17.286,88.957h-41.97l16.437-84.582c1.87-9.622,1.184-16.185-2.064-19.684
			c-3.248-3.5-10.159-5.251-20.729-5.251h-33.021L216.65,317.233h-41.314L212.49,126.071z"/>
		<path fill="#2F2F2F" d="M428.49,207.061c15.821,0,26.365,2.92,31.638,8.761c5.269,5.842,6.522,15.867,3.766,30.074
			c-2.879,14.795-8.421,25.355-16.641,31.683c-8.219,6.327-20.725,9.487-37.514,9.487h-25.329l15.55-80.005H428.49z
			 M327.029,368.057h41.644l9.876-50.823h35.669c15.738,0,28.686-1.649,38.851-4.96c10.164-3.305,19.401-8.848,27.717-16.63
			c6.979-6.415,12.624-13.49,16.948-21.227c4.318-7.731,7.388-16.268,9.201-25.602c4.406-22.66,1.082-40.31-9.965-52.955
			c-11.046-12.645-28.619-18.967-52.709-18.967h-80.076L327.029,368.057z"/>
	</g>
</g>
</svg>
