<?xml version="1.0" encoding="utf-8"?>
<!-- Generator: Adobe Illustrator 16.0.0, SVG Export Plug-In . SVG Version: 6.00 Build 0)  -->
<!DOCTYPE svg PUBLIC "-//W3C//DTD SVG 1.1//EN" "http://www.w3.org/Graphics/SVG/1.1/DTD/svg11.dtd">
<svg version="1.1" id="Calque_1" xmlns="http://www.w3.org/2000/svg" xmlns:xlink="http://www.w3.org/1999/xlink" x="0px" y="0px"
	 width="595.279px" height="595.279px" viewBox="0 0 595.279 595.279" enable-background="new 0 0 595.279 595.279"
	 xml:space="preserve">
<title></title>
<path fill="#2F2F2F" d="M140.685,168.018v-46.06l78.478-45.192L88.3,0.124L9.847,45.936v56.13l176.674,428.974l111.119,64.117
	V434.033l52.261-30.359l-0.596-0.372l105.29-235.284v-46.06l130.838-76.022L506.955,0.124L376.192,76.692h-0.074v52.335
	L297.64,312.125v61.189l-52.335,30.359L140.685,168.018z M219.162,77.238l-0.546-0.348l-77.932,45.068v46.06l104.62,235.656
	l52.335-25.82v-65.729l-78.478-183.099V77.238z M454.595,121.958v46.06l-104.67,225.735l-52.285,36.138v165.266l112.136-64.663
	l175.657-430.04V45.936L454.595,121.958z"/>
</svg>
