<?xml version="1.0" encoding="utf-8"?>
<!-- Generator: Adobe Illustrator 16.0.0, SVG Export Plug-In . SVG Version: 6.00 Build 0)  -->
<!DOCTYPE svg PUBLIC "-//W3C//DTD SVG 1.1//EN" "http://www.w3.org/Graphics/SVG/1.1/DTD/svg11.dtd">
<svg version="1.1" id="Capa_1" xmlns="http://www.w3.org/2000/svg" xmlns:xlink="http://www.w3.org/1999/xlink" x="0px" y="0px"
	 width="595.279px" height="595.279px" viewBox="0 0 595.279 595.279" enable-background="new 0 0 595.279 595.279"
	 xml:space="preserve">
<path fill="#2F2F2F" d="M576.235,0H19.046C8.527,0,0,8.529,0,19.046v557.188c0,10.517,8.526,19.045,19.046,19.045h557.188
	c10.519,0,19.045-8.528,19.045-19.045V19.046C595.28,8.529,586.753,0,576.235,0z M273.544,330.885
	c0,35.454-19.872,57.479-51.865,57.479c-20.093,0-38.05-10.079-50.561-28.38c-5.533-8.097-3.457-19.146,4.64-24.682
	c8.098-5.534,19.15-3.455,24.682,4.64c5.854,8.566,13,12.909,21.239,12.909c6.512,0,16.353,0,16.353-21.964v-90.404h-48.519
	c-9.807,0-17.757-7.949-17.757-17.756s7.95-17.757,17.757-17.757h66.275c9.807,0,17.756,7.95,17.756,17.757V330.885z
	 M360.804,391.58c-23.805,0-48.092-10.037-63.382-26.193c-6.742-7.123-6.432-18.364,0.689-25.104
	c7.125-6.742,18.367-6.432,25.104,0.689c8.544,9.027,23.649,15.094,37.589,15.094c14.271,0,30.938-4.167,30.938-15.905
	c0.091-11.065-5.8-15.21-33.169-23.5c-24.144-7.312-60.632-18.364-60.632-60.423c0-31.426,27.247-52.54,67.801-52.54
	c18.054,0,37.739,5.475,51.376,14.288c8.235,5.324,10.598,16.317,5.274,24.555c-5.326,8.235-16.319,10.597-24.555,5.273
	c-7.831-5.063-21.03-8.602-32.096-8.602c-14.894,0-32.286,4.461-32.286,17.025c0,13.646,7.979,18.124,35.414,26.434
	c23.382,7.081,58.718,17.783,58.386,57.636C427.255,370.915,400.551,391.58,360.804,391.58z"/>
</svg>
