<?xml version="1.0" encoding="utf-8"?>
<!-- Generator: Adobe Illustrator 16.0.0, SVG Export Plug-In . SVG Version: 6.00 Build 0)  -->
<!DOCTYPE svg PUBLIC "-//W3C//DTD SVG 1.1//EN" "http://www.w3.org/Graphics/SVG/1.1/DTD/svg11.dtd">
<svg version="1.1" id="Calque_1" xmlns="http://www.w3.org/2000/svg" xmlns:xlink="http://www.w3.org/1999/xlink" x="0px" y="0px"
	 width="595.279px" height="595.279px" viewBox="0 0 595.279 595.279" enable-background="new 0 0 595.279 595.279"
	 xml:space="preserve">
<g>
	<path fill="#2F2F2F" d="M332.193,21.15l-0.521-1.152c-0.247-0.256-0.513-0.521-1.152-0.521l-1.151,0.265
		c-0.521,0.521-0.786,0.786-0.786,1.308l-22.108,400.274l3.391-0.521l21.542-389.28l25.5,41.879h-0.265
		c19.248,56.702,27.318,117.043,24.201,181.03l1.554,2.34l25.354,44.721l1.554,1.554c38.762,34.073,82.175,56.959,130.305,68.667
		l11.699,18.992l1.554,0.521l0.265-0.521L331.781,28.662l0.521-7.55 M324.406,162.376c27.318,55.927,37.189,140.45,29.905,253.592
		l106.377-12.997L324.406,162.376z M566.902,408.171c10.922-1.298,17.94-3.638,21.066-6.918l-557.003,67.89
		c0.266,23.142,10.657,41.357,30.947,54.354c5.036,3.61,10.557,6.508,16.388,8.582c4.954-5.712,10.41-9.889,16.908-13.782h0.256
		c58.257-35.38,144.874-40.837,259.322-16.644l1.307,0.256c12.366,2.541,24.604,5.657,36.678,9.359
		c3.11,0.512,6.281-0.451,8.582-2.605c4.149-3.107,9.368-5.465,16.388-6.918v-0.266c18.463-32.775,43.45-56.959,74.653-72.844
		c21.588-10.656,46.567-17.694,74.389-20.28 M299.4,418.426l25.362-390.659c-36.687,141.949-96.671,276.824-177.503,399.141
		l152.158-8.582 M156.098,103.599l-1.152-0.521l-1.151,0.265l-0.521,1.307l-21.067,338.134l3.107-0.265l21.067-337.869l-0.521-1.151
		 M126.448,435.49l22.355-329.799L30.992,445.626l95.456-10.146"/>
	<g>
		<path fill="#2F2F2F" stroke="#CCCCCC" stroke-width="0.335" stroke-linecap="round" stroke-linejoin="round" d="M131.238,545.423
			c-29.394,14.057-50.707,16.387-64.243,7.805c-13.527-9.222-34.348-6.919-62.425,6.225 M200.16,547.497
			c-5.733-1.909-11.673-3.131-17.694-3.638c-12.75-1.151-28.087,3.921-46.046,14.569c-17.941,10.922-39.53,14.979-65.295,12.75
			 M360.416,520.983C236.61,495.629,147.397,501.47,92.778,539.19 M438.46,533.194c-5.666-2.157-11.635-3.391-17.694-3.638
			c-12.75-1.151-28.087,3.921-46.027,14.569c-17.941,10.647-39.529,14.824-65.295,12.75"/>
		<path fill="#2F2F2F" stroke="#CCCCCC" stroke-width="0.811" stroke-linecap="round" stroke-linejoin="round" d="M272.365,106.725
			c-12.75-7.806-26.012-5.713-39.795,6.498c-11.964-12.22-24.431-14.295-37.454-6.498 M243.501,63.019
			c-12.997-7.806-25.747-4.68-38.762,9.358c-12.75-14.057-25.747-17.292-38.762-9.358"/>
	</g>
</g>
</svg>
