<?xml version="1.0" encoding="utf-8"?>
<!-- Generator: Adobe Illustrator 16.0.0, SVG Export Plug-In . SVG Version: 6.00 Build 0)  -->
<!DOCTYPE svg PUBLIC "-//W3C//DTD SVG 1.1//EN" "http://www.w3.org/Graphics/SVG/1.1/DTD/svg11.dtd">
<svg version="1.1" id="Layer_2_1_" xmlns="http://www.w3.org/2000/svg" xmlns:xlink="http://www.w3.org/1999/xlink" x="0px" y="0px"
	 width="595.279px" height="595.279px" viewBox="0 0 595.279 595.279" enable-background="new 0 0 595.279 595.279"
	 xml:space="preserve">
<g>
	<path fill="#2F2F2F" d="M587.903,298.351c0-38.23-47.876-74.459-121.276-96.926c16.938-74.812,9.412-134.331-23.76-153.388
		c-7.646-4.47-16.586-6.586-26.351-6.586v26.23c5.412,0,9.765,1.06,13.41,3.058c15.997,9.176,22.938,44.112,17.527,89.045
		c-1.294,11.058-3.41,22.703-5.999,34.583c-23.055-5.647-48.229-10-74.693-12.822c-15.881-21.762-32.348-41.523-48.934-58.814
		c38.346-35.643,74.341-55.169,98.808-55.169V41.332l0,0c-32.348,0-74.695,23.057-117.51,63.05
		c-42.816-39.759-85.165-62.579-117.512-62.579v26.231c24.35,0,60.461,19.409,98.807,54.814
		c-16.467,17.292-32.936,36.936-48.58,58.697c-26.583,2.822-51.757,7.175-74.812,12.939c-2.705-11.762-4.705-23.172-6.117-34.112
		c-5.528-44.934,1.293-79.87,17.174-89.162c3.529-2.117,8.117-3.06,13.527-3.06v-26.23l0,0c-9.881,0-18.82,2.118-26.584,6.587
		c-33.052,19.055-40.464,78.458-23.407,153.034C58.457,224.128,10.818,260.24,10.818,298.351c0,38.229,47.874,74.458,121.274,96.926
		c-16.938,74.811-9.41,134.33,23.762,153.388c7.645,4.469,16.585,6.586,26.466,6.586c32.348,0,74.694-23.056,117.509-63.048
		c42.817,39.758,85.163,62.576,117.511,62.576c9.882,0,18.821-2.116,26.584-6.585c33.055-19.057,40.464-78.459,23.409-153.035
		C540.261,372.693,587.903,336.462,587.903,298.351z M434.75,219.892c-4.353,15.173-9.765,30.818-15.881,46.463
		c-4.822-9.411-9.882-18.821-15.409-28.23c-5.41-9.41-11.175-18.585-16.938-27.526C403.225,213.07,419.341,216.128,434.75,219.892z
		 M380.876,345.167c-9.175,15.879-18.587,30.935-28.348,44.934c-17.526,1.529-35.289,2.354-53.169,2.354
		c-17.763,0-35.525-0.824-52.932-2.236c-9.764-13.997-19.291-28.936-28.467-44.699c-8.94-15.407-17.057-31.053-24.466-46.815
		c7.292-15.762,15.526-31.523,24.35-46.933c9.174-15.881,18.584-30.937,28.348-44.934c17.526-1.53,35.289-2.354,53.168-2.354
		c17.761,0,35.523,0.824,52.933,2.236c9.763,13.998,19.29,28.936,28.467,44.7c8.938,15.408,17.055,31.053,24.467,46.814
		C397.814,313.994,389.698,329.756,380.876,345.167z M418.869,329.875c6.352,15.762,11.764,31.524,16.233,46.814
		c-15.41,3.765-31.643,6.94-48.463,9.411c5.762-9.056,11.526-18.349,16.938-27.878C408.99,348.813,414.047,339.285,418.869,329.875z
		 M299.594,455.386c-10.938-11.294-21.878-23.88-32.7-37.644c10.587,0.472,21.41,0.824,32.348,0.824
		c11.058,0,21.996-0.236,32.701-0.824C321.357,431.506,310.416,444.092,299.594,455.386z M212.08,386.101
		c-16.703-2.471-32.819-5.527-48.228-9.292c4.352-15.174,9.764-30.819,15.88-46.464c4.822,9.412,9.881,18.82,15.41,28.23
		C200.67,367.988,206.316,377.161,212.08,386.101z M299.007,141.318c10.939,11.291,21.878,23.878,32.7,37.641
		c-10.587-0.471-21.408-0.824-32.348-0.824c-11.058,0-21.996,0.236-32.701,0.824C277.246,165.196,288.185,152.609,299.007,141.318z
		 M211.962,210.599c-5.763,9.057-11.527,18.35-16.938,27.878c-5.411,9.41-10.469,18.821-15.292,28.231
		c-6.352-15.762-11.763-31.523-16.233-46.816C178.908,216.247,195.142,213.07,211.962,210.599z M105.508,357.87
		c-41.64-17.761-68.577-41.053-68.577-59.52c0-18.469,26.937-41.875,68.577-59.521c10.117-4.352,21.174-8.233,32.583-11.879
		c6.705,23.055,15.527,47.051,26.467,71.634c-10.822,24.467-19.526,48.345-26.114,71.284
		C126.799,366.223,115.742,362.223,105.508,357.87z M168.792,525.962c-15.998-9.177-22.937-44.111-17.526-89.046
		c1.295-11.057,3.412-22.702,6-34.583c23.055,5.646,48.227,9.999,74.693,12.821c15.881,21.762,32.348,41.524,48.934,58.815
		c-38.348,35.64-74.341,55.167-98.808,55.167C176.792,529.019,172.321,527.96,168.792,525.962z M447.806,436.329
		c5.529,44.933-1.294,79.868-17.173,89.161c-3.529,2.117-8.116,3.058-13.528,3.058c-24.348,0-60.46-19.407-98.808-54.813
		c16.469-17.292,32.936-36.936,48.581-58.696c26.584-2.823,51.756-7.176,74.812-12.939
		C444.396,413.979,446.512,425.39,447.806,436.329z M493.093,357.87c-10.117,4.353-21.174,8.233-32.583,11.881
		c-6.705-23.055-15.527-47.052-26.468-71.635c10.823-24.467,19.527-48.346,26.115-71.284c11.645,3.647,22.701,7.646,33.055,11.998
		c41.638,17.762,68.576,41.052,68.576,59.521C561.671,316.818,534.734,340.226,493.093,357.87z"/>
	<path fill="#2F2F2F" d="M181.496,41.803L181.496,41.803L181.496,41.803z"/>
	<circle fill="#2F2F2F" cx="299.241" cy="298.351" r="53.756"/>
	<path fill="#2F2F2F" d="M416.4,41.451L416.4,41.451L416.4,41.451z"/>
</g>
</svg>
