<?xml version="1.0" encoding="utf-8"?>
<!-- Generator: Adobe Illustrator 16.0.0, SVG Export Plug-In . SVG Version: 6.00 Build 0)  -->
<!DOCTYPE svg PUBLIC "-//W3C//DTD SVG 1.1//EN" "http://www.w3.org/Graphics/SVG/1.1/DTD/svg11.dtd">
<svg version="1.1" id="Calque_1" xmlns="http://www.w3.org/2000/svg" xmlns:xlink="http://www.w3.org/1999/xlink" x="0px" y="0px"
	 width="2490px" height="2500px" viewBox="0 0 2490 2500" enable-background="new 0 0 2490 2500" xml:space="preserve">
<path fill="#2F2F2F" d="M1245,8.044C557.406,8.044,0,565.449,0,1253.043c0,687.595,557.405,1245,1245,1245
	c687.594,0,1245-557.405,1245-1245C2490,565.449,1932.594,8.044,1245,8.044z M1913.621,727.503
	c-57.502,2.071-97.265-32.293-99.064-84.582c-0.612-19.192,4.329-35.893,17.431-55.51c12.868-25.163,15.593-27.964,15.251-38.955
	c-1.157-32.906-50.919-34.208-64.517-33.519c-186.594,6.128-235.781,258.036-275.66,462.828l-19.541,107.994
	c107.459,15.777,183.765-3.638,226.327-31.183c59.916-38.811-16.739-78.768-7.129-123.041c9.843-45.132,50.841-66.851,83.474-67.775
	c45.588-1.07,78.152,46.201,77.111,94.241c-1.566,79.377-106.953,188.509-317.642,184.064c-25.668-0.613-49.265-2.373-71.334-5.019
	l-39.724,219.392c-35.588,166.178-82.899,393.226-252.063,591.278c-145.343,172.772-292.818,199.655-358.861,201.923
	c-123.546,4.173-205.493-61.715-208.44-149.633c-2.83-85.118,72.483-131.62,121.894-133.303
	c65.966-2.188,111.603,45.577,113.354,100.67c1.653,46.619-22.673,61.17-38.76,69.942c-10.767,8.657-26.971,17.47-26.32,36.698
	c0.38,8.209,9.23,27.05,36.62,26.203c52.251-1.798,86.917-27.613,111.165-44.858c120.366-100.329,166.685-275.087,227.358-593.35
	l12.635-77.142c20.737-103.471,43.643-218.857,78.688-333.815c-84.885-63.864-135.755-143.049-249.876-174.037
	c-78.183-21.263-125.92-3.181-159.438,39.188c-39.724,50.228-26.544,115.579,11.837,153.922l63.359,70.069
	c77.763,89.825,120.21,159.662,104.238,253.669c-25.356,150.09-204.14,265.166-415.488,200.231
	c-180.391-55.617-214.063-183.336-192.421-253.708c19.084-61.948,68.31-73.63,116.417-58.885
	c51.57,15.902,71.714,78.542,56.969,126.688c-1.653,5.059-4.251,13.676-9.697,25.163c-5.934,13.374-17.002,24.948-21.798,40.414
	c-11.594,37.815,40.19,64.672,76.237,75.663c80.711,24.898,159.398-17.362,179.436-82.628
	c18.539-60.032-19.385-101.905-35.133-117.954l-76.382-81.858c-34.938-38.965-111.855-147.483-74.36-269.426
	c14.484-46.921,44.938-96.838,89.146-129.859c93.315-69.524,194.794-80.982,291.407-53.242
	c124.995,36.046,185.106,118.713,263.017,182.566c43.556-127.826,104.006-253.056,194.872-358.638
	c82.062-96.293,192.303-165.907,318.611-170.313v0.006c126.227-4.13,221.562,53.012,224.674,143.467
	C2012.765,650.05,1990.616,725.013,1913.621,727.503z"/>
</svg>
