<?xml version="1.0" encoding="utf-8"?>
<!-- Generator: Adobe Illustrator 16.0.0, SVG Export Plug-In . SVG Version: 6.00 Build 0)  -->
<!DOCTYPE svg PUBLIC "-//W3C//DTD SVG 1.1//EN" "http://www.w3.org/Graphics/SVG/1.1/DTD/svg11.dtd">
<svg version="1.1" id="Calque_1" xmlns:serif="http://www.serif.com/"
	 xmlns="http://www.w3.org/2000/svg" xmlns:xlink="http://www.w3.org/1999/xlink" x="0px" y="0px" width="595.279px"
	 height="595.279px" viewBox="0 0 595.279 595.279" enable-background="new 0 0 595.279 595.279" xml:space="preserve">
<path fill="#2F2F2F" d="M385.438,390.944c-33.245-4.743-54.854,5.508-68.749,22.518c-8.704-99.7-26.883-254.992-53.178-361.249
	v0.003c0.033,0.525,0.069,1.059,0.103,1.6l-0.103-0.987c3.98,61.033,8.202,211.996,8.468,319.438l0.002,1.007v0.132
	c0.01,4.131,0.012,8.195,0.01,12.185c-14.081-33.333-33.871-63.016-60.478-81.156c1.662,2.063,3.302,4.148,4.916,6.267l-0.275-0.221
	h-0.002c6.753,8.801,13.077,18.136,18.812,28.655c20.472,37.811,33.334,90.927,31.271,189.114l-18.559-49.896l7.469,61.861h15.539
	l-3.706-9.962l22.982,0.997l0.014-0.462l4.636,0.201c0.596,5.047,1.164,8.037,1.322,8.179h-0.003
	c0.089,0.078,0.368,0.131,0.809,0.16h0.002l0.024,0.002h0.026l0.019,0.002l0.026,0.003h0.01h0.007
	c0.051,0.002,0.104,0.005,0.156,0.007h0.012h0.017c6.165,0.244,35.432-2.995,34.461-7.347
	C318.199,479.25,322.979,393.633,385.438,390.944z M283.882,463.412c-5.011,0-9.078-4.066-9.078-9.077s4.067-9.078,9.078-9.078
	s9.077,4.067,9.077,9.078S288.893,463.412,283.882,463.412z M306.667,463.412c-5.011,0-9.077-4.066-9.077-9.077
	s4.066-9.078,9.077-9.078s9.077,4.067,9.077,9.078S311.678,463.412,306.667,463.412z"/>
<path fill="#2F2F2F" d="M345.095,536.325h10.16l7.469-47.813L345.095,536.325z"/>
<path fill="#2F2F2F" d="M219.283,508.536l12.85,22.114h7.172L219.283,508.536z"/>
<path fill="#2F2F2F" d="M371.091,523.775h8.666l4.185-17.629L371.091,523.775z"/>
</svg>
